<svg 
          width="219" 
          height="137" fill="none" 
          xmlns="http://www.w3.org/2000/svg">
          <path d="M 0 93.37810656604202 C 0.824116458601523 91.87142946977245 1.8632201314452779 91.62031650635615 3.47562193170274 92.48127492039178 C 7.202061511168326 94.49017777243691 10.85683919845523 96.57083153519481 14.654941353524467 98.47211469239615 C 29.190671522516553 105.72892930106273 44.50603649616668 111.30141173917116 60.30382842310904 115.08143239077779 C 67.77359706334724 116.88574449731658 75.33229706135502 118.29868634382407 82.94911483546723 119.31448432683807 C 94.2289093462428 120.83241253025886 105.6108212161774 121.45614817775359 116.9887083964581 121.17988758119941 C 123.22332855410195 121.03639451575715 129.4579514454457 120.53417317539201 135.65674031528772 119.81670785887182 C 155.78286351018448 117.46792950794939 175.47951425223795 112.29948761193275 194.1690166499549 104.46295446440051 C 195.20812006651428 104.03247525738269 196.28304580092276 103.74548476454312 197.42964265374704 104.03247089542762 C 199.83032971023232 104.67818966319008 200.6544375405936 107.26106259602669 198.89871110169756 109.01885265571256 C 197.83093655532883 110.00163688247751 196.6800348940407 110.88983750198476 195.45892934232126 111.67347213730689 C 184.4587656760837 119.24273136344054 172.45532868509486 124.7313496560959 159.77110064299617 128.856775226087 C 150.98788078754225 131.6908060248185 141.988270133812 133.80237227888418 132.86190396729506 135.17046125334312 C 126.54951824905699 136.1384693145657 120.18324378843471 136.71355228190708 113.7997381340199 136.89238458158275 C 113.49928674774196 136.91054148413906 113.20017132914006 136.94647314510394 112.9039593560991 137 L 105.34358428348753 137 C 105.04737231044656 136.94647314510394 104.74825689184466 136.91054148413906 104.44780550556672 136.89238458158275 C 103.157884099532 136.8206380488616 101.86795825123497 136.78476697416966 100.61386796214583 136.7488937078091 C 94.56190132908745 136.47423345697422 88.53161772008232 135.83934431176388 82.55496998622216 134.84760405043943 C 72.7411808126773 133.2463002405327 63.097058038994994 130.73636287408706 53.74672667524874 127.35009368233382 C 34.512479901688664 120.40535557633834 16.798291229736545 109.80820025476864 1.5765705124556355 96.14035241370553 C 0.9316098094382749 95.56638015193653 0.5016361070928428 94.77716392470354 0 94.09557188256221 L 0 93.37810656604202 Z M 56.61321876459534 0.035872718443413304 L 55.07247817309159 0.25111176601687424 C 50.14552267143444 0.8599614507180061 45.457229421006865 2.7251329655255248 41.45664074869524 5.667977095274698 C 40.59669308772001 6.277822631422566 39.80840834406092 6.923539218207499 38.91262956614011 7.605131260348827 C 38.83662060527376 7.447121811585027 38.78814719421716 7.2772695692949005 38.769304414932805 7.1029077283150786 C 38.625979808329774 6.134329533907115 38.48265684621808 5.129876482842472 38.303501090633915 4.161298288434509 C 38.05268303708749 2.5111280946494827 37.22856706969767 1.7936632913004762 35.58033415249462 1.7936632913004762 L 31.459751774058883 1.7936632913004762 C 28.98740231282619 1.7936632913004762 28.52159574225869 2.2600146180619953 28.52159574225869 4.735269994268065 L 28.52159574225869 79.8180164628712 C 28.52159574225869 80.1767491211313 28.521595194984787 80.53548177939139 28.557426346635545 80.89421443765148 C 28.62908864993706 81.97041241243177 29.274049881540922 82.65200446259139 30.313153298100314 82.68787772895196 C 32.82133387627859 82.72375099531253 35.36534505883372 82.72375099531253 37.873525637011994 82.68787772895196 C 38.912629053571386 82.68787772895196 39.55758973523171 81.97041241243177 39.665083192853615 80.89421443765148 C 39.700914344504376 80.53548177939139 39.70091653093036 80.1767491211313 39.70091653093036 79.8180164628712 L 39.70091653093036 53.845774194370684 C 40.095059201758325 54.168633578251914 40.31004500643655 54.34799772640443 40.489200762020715 54.52736405553448 C 46.90297667524874 59.87248052676425 54.284193942001224 61.630268533765395 62.34620294328854 60.05184480320956 C 69.65575763443738 58.61691417016918 74.74378239153504 54.13275799460273 78.04024822594113 47.53207721946262 C 80.5484288041194 42.545693406492944 81.58753327785179 37.23644760102185 81.73085788445482 31.711964800662034 C 81.91001364003898 25.57763620756876 81.30088191826418 19.550929190946945 78.82853245703149 13.847080061457081 C 75.78288461210073 6.815919822713565 70.73069421821727 2.188268154832801 63.09865930370193 0.6098444242769695 C 61.95206245087766 0.35873156777132936 60.76963337054224 0.25111176601687424 59.58720540077239 0.07174543688682661 C 58.583933186586705 0.035872170526263764 57.61649097878102 0.035872718443413304 56.61321876459534 0.035872718443413304 Z M 39.62925258847676 15.066771646924002 C 39.60883219739658 14.832006200597473 39.65519805932422 14.59624862331529 39.76299065419161 14.386758247637324 C 39.870783249059 14.177267871959359 40.035601570998345 14.002599913677239 40.23838379768284 13.882952779900494 C 45.147251432346394 10.474992526429588 50.55775231226073 8.681330347000012 56.5773854265186 9.14768278563243 C 61.91622680624165 9.542288718271388 66.28762734500896 12.161037662399826 68.58082105065749 18.438859181951493 C 69.9782359783852 22.27729855691169 70.33655073582214 26.25922846353141 70.33655073582214 30.277034167621654 C 70.33655073582214 34.007853676680995 70.04990154397309 37.666929117310005 68.90330469114883 41.254255699910956 C 66.46678634686172 48.895261047159686 60.877124927388444 51.8009958442049 53.63923212841829 51.47813646032367 C 48.62287097206175 51.262896856814756 44.251472654425584 49.3257427345049 40.23838379768284 46.49175470003873 C 40.038189914933625 46.369322874905436 39.87547955324608 46.19413241213845 39.76804799897663 45.98534369114388 C 39.66061644470717 45.77655497014931 39.612599558861525 45.54220797215904 39.62925258847676 45.30793583301522 C 39.66508374012752 40.24980521470223 39.62925258847676 35.22754936751739 39.62925258847676 30.169418749204397 C 39.62925258847676 25.111288130891403 39.66508374012752 20.124902265236994 39.62925258847676 15.066771646924002 Z M 113.33392660862137 0.035872718443413304 C 112.97561509745304 0.07174598480397615 112.6173057647018 0.14349306276948479 112.29482541319312 0.17936632913004763 C 108.80311599938676 0.3268188523706591 105.33451865124792 0.8194816952063428 101.93962492738845 1.650169680613842 C 99.75392474343292 2.2241419423828477 97.6398890144997 3.013354876767396 95.52585106443533 3.730820193287587 C 94.23592965840061 4.161299400305407 93.59096234271274 5.094003165699345 93.6267934943635 6.493060567125128 C 93.66262464601425 7.676878322277736 93.59096234271274 8.86069667613006 93.6267934943635 10.044514431282668 C 93.66262464601425 11.766431259353949 94.37925429703918 12.23278421115755 96.06331833118782 11.80230500413973 C 98.85814818664325 11.08483968761954 101.65297787124244 10.29562619729954 104.48363884364346 9.757527209909398 C 108.89087049935635 8.932442113016885 113.33392660862135 8.573711635734323 117.81282049822542 9.25530367787565 C 120.14184532081953 9.614036336135745 122.32755216816854 10.295626197299542 123.83246044673301 12.268655817730066 C 125.15821305514143 13.990572645801347 125.65984477870379 16.03534924263225 125.73150708200531 18.151871960578223 C 125.83900053962721 21.12935309255984 125.80317594458478 24.106834566655575 125.83900709623553 27.08431569863719 C 125.83028045546224 27.253543828548025 125.80629109170899 27.421633894447773 125.76734042008205 27.58653923067094 C 125.58818466449789 27.550665964310376 125.44486443608608 27.586542515501073 125.30153982948305 27.55066924914051 C 121.53983073754175 26.622200257885126 117.70242173698094 26.033903057719385 113.83557147209665 25.792875939370465 C 109.78665132755208 25.577636335861555 105.77355597827211 25.82875250659776 101.90379158931171 27.191936590880413 C 97.28157323192531 28.80623355305084 93.55513553187839 31.604345961103547 91.36943534792286 36.1243775920264 C 89.68537131377423 39.639957711398154 89.43455537457382 43.37077619411513 89.9720226413263 47.13746910584613 C 90.68864566366295 52.15972632148746 93.19682419156631 56.03404337554585 97.63988679336855 58.50929875175192 C 101.90379363958662 60.876934262057134 106.5260099466981 61.163918233346244 111.21989087968815 60.446452916826054 C 116.63039483501485 59.62136781993354 121.43177544052264 57.325480911070784 125.65985134065137 53.845774194370684 C 125.83270635582252 53.68946863430362 126.02547417487295 53.55677677455918 126.23314101068107 53.45116608075419 C 126.44812792592488 54.81435016503685 126.62729023811734 56.10578778609031 126.87810829166376 57.39722532161524 C 127.09309520690758 58.50929652801012 127.77388484845343 59.22676078344198 128.81298826501282 59.26263404980254 C 130.74787045949302 59.298507316163104 132.7185793286565 59.298507316163104 134.65346152313668 59.26263404980254 C 135.10236229562597 59.25910731257989 135.53240794980664 59.0814419431285 135.85316211933792 58.76700100422731 C 136.1739162888692 58.45256006532612 136.3603920251128 58.02584625187059 136.37336333762437 57.57659165074529 C 136.40319268588544 57.24265399149117 136.41515568827828 56.907356449981684 136.4091966757011 56.57213911285183 L 136.4091966757011 18.546477337281733 C 136.42660743139584 16.997741928174374 136.318753005256 15.45013925892707 136.08670756781 13.918828235256889 C 135.405915705133 9.29117708054731 133.4352025218494 5.488610252973466 129.27878885561182 3.0133548767673966 C 126.87810179912654 1.5784242437270155 124.22660085371577 0.8609594831422742 121.46760228606216 0.4663535505033163 C 120.17768088002744 0.28698722137326865 118.88776374539879 0.17936632913004763 117.59784233936406 0 C 116.20042741163635 0.035873266360562844 114.76717265329466 0.035872718443413304 113.33392660862137 0.035872718443413304 Z M 125.87482949951274 45.846034820405364 C 125.8883616463063 46.056987840868274 125.84574537812917 46.26775537133032 125.75132093876303 46.4568262165738 C 125.6568964993969 46.64589706181729 125.51404581597566 46.80649942558976 125.33736223276024 46.92223279518565 C 121.3242733760175 49.82796746393807 116.91704377057953 51.76512150071941 111.9365139020248 52.26734721373069 C 109.89413835670784 52.4825868172396 107.85176708279697 52.41083919937524 105.91688488831676 51.621627334097326 C 104.85358865492643 51.23241192263173 103.89703426118916 50.597477490064406 103.1250009361986 49.768436185457695 C 102.35296761120804 48.93939488085098 101.78724958507445 47.93965239914096 101.47382433678943 46.85048735829883 C 100.76346225603976 44.58702097979647 100.75097334812065 42.161748305850864 101.43799099871269 39.8910705037574 C 102.3337697766335 36.913589371775785 104.44780550556672 35.22754919646032 107.31429759491331 34.29484431919549 C 110.1912888003761 33.426270957961094 113.21563531409987 33.157662021727454 116.20041869796796 33.505628091962514 C 119.21023525509689 33.756740948468156 122.14838992004715 34.330716481703455 125.15820647717608 34.725322414342415 C 125.73150490358822 34.79706894706354 125.91066283758947 35.08405177975408 125.91066283758947 35.658024041523085 C 125.87483168593872 37.379940869594364 125.91066283758947 39.065985321336356 125.91066283758947 40.787902149407635 C 125.91066283758947 42.509818977478915 125.83899834786199 44.15999139500574 125.87482949951274 45.846034820405364 Z M 219.00000000000003 92.26604408355728 C 218.6416884888317 90.4723807922568 217.2800916929751 89.79078216441862 215.73935212660882 89.28855645140733 C 213.29685398468217 88.51950408844856 210.77024365616856 88.04972718366813 208.21481039207399 87.88950127372334 C 203.52346428230118 87.4885210279871 198.79963805907158 87.71774972073499 194.1690166499549 88.57109113488714 C 189.04516197190534 89.53966932929511 184.17212562504363 91.18984166129339 179.8365562032219 94.167322793275 C 179.32039791349328 94.4995359835297 178.87076408229453 94.92536104864101 178.51079923797928 95.42288709718534 C 178.38531192701134 95.63740560965226 178.3047175957128 95.87523560737873 178.27391867564899 96.12191656786477 C 178.24311975558518 96.36859752835082 178.26275988891885 96.61897428355734 178.33164348239512 96.85781773022572 C 178.47496808899817 97.39591671761586 179.084088908009 97.53940540239368 179.62155617476148 97.50353213603312 C 179.884826530277 97.50949018912178 180.14820106538653 97.49751350402167 180.4098458732516 97.46766762832866 C 183.20467572870703 97.18068149744416 185.96366985409836 96.85782211356292 188.75849970955377 96.57083598267842 C 192.8432508001877 96.17623005003946 196.9638290780736 95.92510844824155 201.0485801687075 96.24796783212278 C 202.7970175385759 96.39344347028786 204.52596038200426 96.71800402733498 206.208274677371 97.21655038848581 C 208.03566335015822 97.7187761014971 208.85977111110913 99.08195809033076 208.93143341441063 100.94736784486042 C 209.07475802101368 103.81722911094118 208.42979726460374 106.57947718234648 207.6773431253215 109.3058453509118 C 206.20826596370262 114.83032815127162 204.09423245590057 120.17543606964831 202.0160256227818 125.48467948032055 C 201.86457541362964 125.83192108113666 201.74465431606944 126.19210725401105 201.65771411161347 126.56087745510084 C 201.4785583560293 127.60120219826652 202.08770101260365 128.28279640000326 203.12680442916303 128.03168354349762 C 203.7681830456233 127.88739344836922 204.36094439007056 127.57829842751264 204.84669530885117 127.13485189784737 C 206.46338167110775 125.63029265905399 207.98327985127253 124.02474252865707 209.39725587460873 122.32783646669249 C 213.9836432859058 116.44462100807257 216.67096202147522 109.66457116688944 218.2475327047871 102.3822984779008 C 218.53418191799315 101.09086094237587 218.7491819464536 99.76355222792108 219.00000000000003 98.47211469239615 L 219.00000000000003 92.26604408355728 Z M 171.66704718770438 48.070176206852764 C 167.04482883031798 35.26342003327606 162.4226056889568 22.444707655341386 157.8003873315704 9.614036336135745 C 157.08376430923374 7.5692602524760275 156.295483324412 5.56035671620266 155.54302918512977 3.5514538641575393 C 155.1488865143018 2.5111291209918507 154.39643455343668 1.8295360097438895 153.2498377006124 1.8295360097438895 C 150.52667024990438 1.7936627433833268 147.80349391467172 1.7577900249399134 145.0444953470181 1.7936632913004762 C 144.1487165690973 1.7936632913004762 143.71874931657504 2.511128607820667 143.8979050721592 3.407960253470905 C 144.07044819993774 4.153241586374896 144.29800169862 4.884673241544897 144.5786947564191 5.59622892147489 C 151.60160051200327 22.99476284708951 158.66033960566418 40.39329950961711 165.75490725342704 57.79183343523173 C 166.36403683949882 59.262637299886705 166.50735485745798 60.51819732737051 165.82656299478097 62.024874423640085 C 164.6441350250111 64.64362289736161 163.7125294869789 67.40587079770984 162.49427031483535 70.02461927143136 C 161.41933578133037 72.35638155012198 159.62777378322644 74.11416720508853 157.047930971157 74.79575924722987 C 155.24858083294038 75.26647535149654 153.3778438810959 75.40025884395098 151.52993588612472 75.19036736084635 C 150.6341571082039 75.11862082812523 149.73837833028307 74.90338123530738 148.84259955236226 74.83163470258626 C 147.6243403802187 74.75988816986514 147.01521740681747 75.2979827792636 146.9793862551667 76.55354708317394 C 146.94355510351593 77.74932258219808 146.94355510351593 78.93313819913743 146.9793862551667 80.1049982104185 C 147.01521740681747 82.07802783084902 147.6960070563722 82.97486824317365 149.6308892508524 83.29772762705488 C 151.62742782508036 83.69571035437708 153.65217715697162 83.93560755530746 155.6863516026372 84.01519294357507 C 161.81347858030054 84.15868600901733 166.68651492716228 81.68342176991727 169.83965629378602 76.3383052986875 C 171.10878833934512 74.22754480890913 172.21097974011016 72.02058182784474 173.13612657045442 69.73762657623213 C 181.62810965851372 48.28541388596973 190.060364821237 26.809288786991374 198.43291051109853 5.309244437014602 C 198.6943347008402 4.674126331927692 198.88655975232152 4.012621221147243 199.0062220507273 3.336214816584078 C 199.14954665733035 2.331763390561518 198.68373729967038 1.757790572857063 197.68046508548468 1.757790572857063 C 195.315609145945 1.7219173064965003 192.9149132049351 1.757790572857063 190.5500572653954 1.757790572857063 C 189.9481607502177 1.7156240049543632 189.34950294326327 1.8763898003850996 188.84947724168634 2.214466399059173 C 188.3494515401094 2.5525429977332466 187.97683472694843 3.0484698124291647 187.79105425547948 3.623199301044366 C 187.61189849989532 4.125425014055646 187.39692034103393 4.59177693951688 187.21776458544977 5.09400265252816 L 174.74852837071188 40.96726847853768 C 173.85274959279107 43.550143549587546 172.92113525566236 46.168890996966695 171.98952536079597 48.931132397146605 C 171.84620075419292 48.536526464507645 171.77454064532628 48.32128906335841 171.66704718770438 48.070176206852764 Z" fill="rgb(255,255,255)"/>
        </svg>